<svg width="32" height="44" viewBox="0 0 32 44" fill="none" xmlns="http://www.w3.org/2000/svg">
<path d="M16.5458 42.5846C15.8209 41.8867 16.3528 41.7614 15.6262 42.5312C14.0989 44.1493 11.5847 43.8287 9.60146 43.4869L5.98862 42.8301C4.89418 42.6263 3.7074 42.141 3.55552 40.8477C3.49791 40.3575 3.62059 39.914 3.70027 39.4374L4.03229 37.4575L1.56123 37.1064C1.40931 37.0887 1.25434 37.0805 1.10701 37.0369L1.07021 37.0256C0.678805 36.9076 0.414805 36.6041 0.322555 36.2021L0.312946 36.1562C0.240524 35.8235 0.249618 35.4462 0.222149 35.1043L0.132899 33.653C0.120852 33.4726 0.0796953 33.2958 0.0713515 33.1146L0.0693359 27.4961C0.0784297 27.2645 0.12793 27.0372 0.140445 26.8057L0.748508 21.0741C1.16265 18.7459 1.74549 16.4603 2.46404 14.2075L2.89538 13.0233C3.55098 11.2506 4.24037 9.50337 5.65266 8.20057C5.85095 8.01766 6.07266 7.79393 6.31445 7.67332L6.28674 7.26438C5.9724 3.63569 9.08495 1.25311 12.2977 0.476497C13.1663 0.266516 14.0732 0.163695 14.9634 0.0957031L17.9663 0.19333C20.9708 0.528144 24.0824 1.74295 25.345 4.71476C25.7227 5.60355 25.8196 6.63879 25.6455 7.58266C25.6211 7.71452 25.9843 7.89288 26.0882 7.97201C27.2917 8.88916 28.1161 10.4879 28.6689 11.8922L29.4755 14.0546L30.2331 16.5126L31.0048 19.7246L31.5054 22.4912C31.5444 22.6557 31.5522 22.8293 31.5772 22.9965L31.9219 26.5568L31.9417 28.0136C31.9468 28.246 31.9852 28.4752 31.9882 28.7084L31.9847 30.1327C31.9797 30.282 31.948 30.4289 31.9442 30.578L31.9261 32.8645L31.7245 36.0976C31.6251 37.069 30.823 37.0781 30.039 37.1877L27.9492 37.4688L28.3864 39.766C28.7297 40.9148 28.1307 42.1725 26.9821 42.5898C26.4901 42.7684 25.9192 42.819 25.4051 42.9162L21.3436 43.6557C21.0798 43.6898 20.8212 43.7363 20.5545 43.748L19.644 43.7544C18.5562 43.7518 17.5286 43.513 16.7032 42.7398L16.5458 42.5846ZM15.1648 1.54302C14.6822 1.56014 14.209 1.61014 13.7316 1.68129L12.8124 1.86147C11.3144 2.2072 9.48812 3.00851 8.55934 4.3136L8.2148 4.84366C7.67316 5.82087 7.4581 7.17776 8.10399 8.16007C8.38013 8.58002 8.77107 8.83746 9.13248 9.17023C9.66545 9.66091 9.93887 10.2678 10.279 10.8905L13.5976 17.0336L15.3278 20.6121C15.5273 20.2569 15.6394 19.0808 15.6432 18.6116L15.6448 17.4521C15.6434 15.1355 15.3894 14.3048 14.3089 12.155L12.6513 8.94654C12.1883 8.04921 11.3979 6.98496 11.5605 5.91579C11.9165 3.57335 13.7763 2.52567 16.0032 2.52256C19.1051 2.51823 21.5375 4.94388 19.9401 7.88444L16.7926 13.5585C16.5578 13.9242 16.6639 13.9597 16.7858 14.3606L16.9635 15.268C17.023 15.5278 17.0243 15.8283 17.0457 16.0956C17.2046 18.0753 17.1874 20.1063 16.3603 21.9435L16.1955 22.2885C16.1083 22.4586 16.1034 22.4645 16.1679 22.6513C16.4819 23.5602 16.6714 24.5592 16.723 25.5221L16.7316 40.039L18.0866 40.0226C20.319 40.0189 22.1955 39.6191 24.3905 39.2311L26.7223 38.8227L25.8759 34.0352C24.6081 33.7781 23.7496 32.8277 23.1874 31.7118C22.9277 31.1537 21.8959 28.3577 22.0918 27.7491C22.2949 27.1183 23.1535 27.0769 23.4137 27.709L23.7895 29.1351C23.7971 29.1711 23.8086 29.2032 23.8206 29.2378L24.2365 30.4876C24.3825 30.9147 25.0472 32.2469 25.5723 32.3411L25.5665 32.32C25.5084 32.1009 25.4901 31.8763 25.4569 31.6529L24.3707 24.0454C24.3162 23.5658 24.2745 23.103 24.2749 22.6205L24.3339 19.9117C24.3503 19.3696 24.7668 18.8082 25.3189 19.0987L25.4286 19.1718C25.8197 19.4508 25.7239 20.0162 25.7228 20.4273L25.7118 22.3676C25.7082 23.2636 25.7761 23.8341 25.8952 24.7365L26.9274 31.6279C26.9813 32.0182 27.0138 32.4295 27.1047 32.8121L27.649 36.0282C27.9778 35.9821 30.2858 35.6933 30.3567 35.6453C30.3752 35.0528 30.4256 34.493 30.4473 33.9186L30.5201 31.9305L30.4416 25.8938L29.9628 21.8358L29.7171 20.5937C29.2384 18.0953 27.5807 11.6218 25.8413 9.75251L25.0788 9.01858C24.8287 9.25469 24.634 9.54766 24.3788 9.78841C23.6919 10.4363 23.8311 10.2035 23.3686 11.0438L22.6913 12.2165L19.7958 16.7117C19.5811 17.0225 19.3692 17.3589 18.9444 17.3448C18.6399 17.3348 18.4096 17.1239 18.3174 16.8437L18.3041 16.8048C18.16 16.3566 18.5128 15.9677 18.7523 15.6304L20.4222 13.1331L21.7608 10.9429C22.4859 9.68487 22.4052 9.65819 23.4538 8.64044C24.1798 7.93587 24.4489 6.96157 24.2341 5.96866L24.229 5.94401C23.6672 3.31563 20.8281 2.066 18.4197 1.73902L17.6861 1.64535C17.2889 1.61024 16.9017 1.55679 16.5028 1.54702L15.1648 1.54302ZM15.3548 4.00118C14.578 4.11588 13.8991 4.37435 13.4132 5.0238C12.8284 5.80568 12.9127 6.26932 13.2944 7.04782L15.9514 12.1518L16.2357 11.6524L18.2484 7.98429C18.614 7.32527 19.1679 6.62777 18.9554 5.8361C18.497 4.12863 16.885 3.93377 15.3548 4.00118ZM6.99324 8.97387C5.20426 10.3425 4.2789 13.2844 3.62865 15.3618L2.73085 18.6015C2.43863 19.753 2.19245 20.9389 2.03204 22.1171L1.53676 26.7638C1.44915 27.2096 1.50507 27.7315 1.4978 28.1874L1.49813 32.8676C1.50563 33.0332 1.54876 33.1952 1.55823 33.3606C1.58452 33.8202 1.58982 35.4213 1.7191 35.6562L4.34256 36.0408C4.38671 35.5545 4.4746 35.0897 4.55349 34.6093L6.09774 24.7664C6.22852 23.8737 6.29893 23.1773 6.29565 22.2812L6.28524 20.0312C6.28332 19.7118 6.25923 19.4428 6.52768 19.2121C6.86996 18.9178 7.34115 18.9973 7.56071 19.3983L7.60627 19.4818C7.66515 19.5937 7.66088 19.7439 7.66234 19.8664L7.67031 20.5742C7.74929 22.3572 7.70415 23.5386 7.47357 25.2877L6.59537 31.0758C6.53434 31.4906 6.44494 31.9015 6.41002 32.3191C6.84498 31.944 7.21159 31.4408 7.48988 30.9404C7.90801 30.1974 8.13685 29.3828 8.35018 28.5626C8.48396 28.0481 8.68252 26.8388 9.56274 27.3288C10.1359 27.6478 9.87385 28.3826 9.75151 28.8788C9.32269 30.6182 8.69068 32.4547 7.17118 33.531C6.86804 33.7458 6.55323 33.9317 6.17959 33.9856L6.10084 33.9937L5.27738 38.8447L8.9881 39.47C10.1626 39.6683 11.3563 39.916 12.5462 39.9995C13.4529 40.0632 14.3807 40.0245 15.29 40.0239L15.286 39.9932C15.2371 39.5769 15.2688 39.1233 15.2686 38.7027L15.2704 26.2343C15.2702 25.7688 15.2992 25.2709 15.2136 24.8124C14.9795 23.5575 14.6527 22.5575 14.1007 21.3856L11.7037 16.5123L8.42823 10.5198C8.10113 9.94774 7.35174 9.79549 6.99324 8.97387ZM26.8964 40.2675L19.5499 41.4573C19.3499 41.5018 19.1349 41.4939 18.9307 41.4962L17.9826 41.5122C17.8543 41.518 17.6971 41.5107 17.5762 41.5511C17.7593 41.736 17.917 41.863 18.1479 41.9846C19.2186 42.5949 20.7976 42.2936 21.9328 42.0944L25.4218 41.4307C26.0572 41.3094 27.1512 41.1978 27.0272 40.2903C26.9806 40.2751 26.9458 40.2617 26.8964 40.2675ZM4.99909 40.2929C4.98718 40.3925 4.98015 40.4754 4.99857 40.5741L5.00354 40.6026C5.11604 41.1837 5.60855 41.2605 6.09756 41.3481L11.1024 42.2495C12.1108 42.3491 13.2056 42.4433 14.1152 41.9025C14.2666 41.7941 14.4476 41.6879 14.5764 41.5534C13.9359 41.4118 13.0938 41.5384 12.4156 41.4734C11.002 41.3378 9.60432 41.0702 8.20693 40.8218L5.85324 40.4126C5.62384 40.3742 5.22577 40.2494 4.99909 40.2929Z" fill="black"/>
</svg>
