<svg width="181" height="342" viewBox="0 0 181 342" fill="none" xmlns="http://www.w3.org/2000/svg">
<g filter="url(#filter0_df_1_2)">
<g filter="url(#filter1_d_1_2)">
<path d="M47.7539 199.054L47.7539 63.0004C47.7539 53.7178 51.4414 44.8154 58.0052 38.2517C64.569 31.6879 73.4714 28.0004 82.7539 28.0004C92.0365 28.0004 100.939 31.6879 107.503 38.2517C114.066 44.8154 117.754 53.7178 117.754 63.0004L117.754 201.97C126.831 209.089 133.663 218.672 137.434 229.574C141.205 240.475 141.754 252.232 139.016 263.437C136.277 274.643 130.368 284.821 121.994 292.755C113.62 300.688 103.138 306.04 91.8009 308.17C87.6862 309.262 83.4081 309.601 79.1729 309.17C66.4012 308.837 54.0691 304.437 43.9718 296.609C33.8745 288.781 26.5392 277.935 23.0337 265.649C19.5282 253.364 20.0355 240.28 24.4817 228.302C28.9279 216.325 37.0809 206.079 47.7539 199.056V199.054Z" fill="url(#paint0_linear_1_2)"/>
<path d="M21.7301 249.189C21.7301 257.029 23.2429 264.644 26.2265 271.821C29.1084 278.754 33.2414 285.005 38.5105 290.402C41.1059 293.061 43.9647 295.485 47.0077 297.609C50.0769 299.75 53.3621 301.605 56.7719 303.122C63.8537 306.273 71.3994 307.971 79.1993 308.169L79.2372 308.17L79.275 308.174C80.4226 308.291 81.5933 308.35 82.7545 308.35C85.7353 308.35 88.6924 307.964 91.5439 307.203L91.5807 307.193L91.6183 307.186C98.3577 305.929 104.773 303.521 110.687 300.029C116.478 296.61 121.611 292.258 125.943 287.096C130.308 281.896 133.713 276.046 136.064 269.71C138.497 263.153 139.731 256.248 139.731 249.189C139.731 244.564 139.194 239.958 138.135 235.501C137.106 231.169 135.578 226.949 133.593 222.957C131.644 219.036 129.247 215.323 126.471 211.919C123.711 208.536 120.571 205.453 117.137 202.757L116.755 202.457V201.97L116.755 63.0001C116.755 58.4096 115.856 53.957 114.083 49.766C112.371 45.7174 109.919 42.0811 106.796 38.9583C103.673 35.8355 100.037 33.3839 95.9887 31.6715C91.7976 29.8988 87.345 29 82.7545 29C78.1641 29 73.7115 29.8988 69.5204 31.6715C65.4718 33.3839 61.8356 35.8355 58.7128 38.9583C55.5899 42.0811 53.1383 45.7174 51.4259 49.766C49.6532 53.957 48.7544 58.4096 48.7544 63.0001L48.7544 199.055V199.593L48.3047 199.89C40.3012 205.164 33.6301 212.384 29.0127 220.769C26.6654 225.031 24.8547 229.575 23.6308 234.275C22.3696 239.117 21.7301 244.135 21.7301 249.189ZM20.7301 249.189C20.7301 228.231 31.473 209.785 47.7544 199.055L47.7544 63.0001C47.7544 43.6699 63.4243 28 82.7545 28C102.085 28 117.755 43.6699 117.755 63.0001L117.755 201.97C131.743 212.955 140.731 230.023 140.731 249.189C140.731 278.544 119.65 302.975 91.8017 308.169C88.9155 308.94 85.8834 309.35 82.7545 309.35C81.5452 309.35 80.3516 309.289 79.1739 309.169C46.7553 308.344 20.7301 281.806 20.7301 249.189Z" fill="white" fill-opacity="0.5"/>
</g>
<path d="M81.1302 205.581C89.9301 205.427 98.578 207.886 105.98 212.648C113.382 217.409 119.206 224.258 122.716 232.33C126.225 240.401 127.263 249.332 125.697 257.992C124.13 266.653 120.031 274.655 113.917 280.986C107.804 287.317 99.9496 291.693 91.3487 293.561C82.7479 295.428 73.7864 294.703 65.5975 291.478C57.4087 288.252 50.3602 282.67 45.3435 275.439C40.3268 268.207 37.5672 259.65 37.4136 250.851C37.2076 239.05 41.6977 227.651 49.8962 219.162C58.0946 210.672 69.3298 205.787 81.1302 205.581V205.581Z" fill="white"/>
<path d="M102.977 138.754H60.977V211.754H102.977V138.754Z" fill="white"/>
</g>
<defs>
<filter id="filter0_df_1_2" x="0.730103" y="0" width="180.001" height="341.351" filterUnits="userSpaceOnUse" color-interpolation-filters="sRGB">
<feFlood flood-opacity="0" result="BackgroundImageFix"/>
<feColorMatrix in="SourceAlpha" type="matrix" values="0 0 0 0 0 0 0 0 0 0 0 0 0 0 0 0 0 0 127 0" result="hardAlpha"/>
<feOffset dx="10" dy="2"/>
<feGaussianBlur stdDeviation="15"/>
<feColorMatrix type="matrix" values="0 0 0 0 0.258824 0 0 0 0 0.627451 0 0 0 0 0.941176 0 0 0 0.596 0"/>
<feBlend mode="normal" in2="BackgroundImageFix" result="effect1_dropShadow_1_2"/>
<feBlend mode="normal" in="SourceGraphic" in2="effect1_dropShadow_1_2" result="shape"/>
<feGaussianBlur stdDeviation="1" result="effect2_foregroundBlur_1_2"/>
</filter>
<filter id="filter1_d_1_2" x="0.730103" y="0" width="180.001" height="341.351" filterUnits="userSpaceOnUse" color-interpolation-filters="sRGB">
<feFlood flood-opacity="0" result="BackgroundImageFix"/>
<feColorMatrix in="SourceAlpha" type="matrix" values="0 0 0 0 0 0 0 0 0 0 0 0 0 0 0 0 0 0 127 0" result="hardAlpha"/>
<feOffset dx="10" dy="2"/>
<feGaussianBlur stdDeviation="15"/>
<feColorMatrix type="matrix" values="0 0 0 0 0.501961 0 0 0 0 0.501961 0 0 0 0 0.501961 0 0 0 0.302 0"/>
<feBlend mode="normal" in2="BackgroundImageFix" result="effect1_dropShadow_1_2"/>
<feBlend mode="normal" in="SourceGraphic" in2="effect1_dropShadow_1_2" result="shape"/>
</filter>
<linearGradient id="paint0_linear_1_2" x1="125.611" y1="141.947" x2="7.56275" y2="169.912" gradientUnits="userSpaceOnUse">
<stop stop-color="white" stop-opacity="0.596"/>
<stop offset="1" stop-color="#F7F7F7" stop-opacity="0.204"/>
</linearGradient>
</defs>
</svg>
