<svg width="46" height="33" viewBox="0 0 46 33" fill="none" xmlns="http://www.w3.org/2000/svg">
<path d="M28.4493 30.2317L17.6042 30.2316C17.2526 30.2314 16.8423 30.2711 16.4962 30.2175C14.695 29.9382 13.5254 28.6167 13.523 26.8185L13.5262 21.0669C13.5259 20.4891 13.3961 20.0598 13.1562 19.5299L9.78862 28.8544C9.55978 29.6199 9.51904 29.5159 8.99742 30.1355L8.06948 31.2647C6.83188 32.8026 7.12692 32.5871 5.32401 32.1523L1.95127 31.3079C0.944713 31.0908 0.793354 31.0156 0.78839 30.0377L0.69703 27.0959C0.684482 26.5651 0.672843 26.6539 0.899882 26.2015L1.20328 25.5318L7.48378 8.83868C7.7691 8.08296 7.97442 7.33798 8.39512 6.63809C9.59029 4.64979 11.4109 4.07693 13.5114 3.72246L14.9376 3.46282C15.4535 3.36958 15.9751 3.29144 16.4849 3.16554C16.8019 2.11099 17.3932 0.995976 18.6135 0.844335C18.7109 0.832851 18.8121 0.84471 18.9063 0.870116L18.9454 0.881038C19.1825 0.94507 19.3703 1.08049 19.5849 1.19496C21.4027 2.16476 24.5456 2.22593 26.3909 1.20101C26.5618 1.10604 26.7363 0.986976 26.9172 0.91357C28.2171 0.386413 29.2198 2.10471 29.5025 3.16915L31.8739 3.61254C35.5136 4.23762 37.1891 4.95115 38.3901 8.48623L42.6646 19.9142L45.2516 26.5877C45.3689 26.9368 45.2947 27.4142 45.2943 27.7786L45.2348 29.8048C45.2258 30.102 45.3489 30.6971 45.1369 30.9309L45.1133 30.956C44.7522 31.3456 44.0923 31.3704 43.6022 31.4806L39.9776 32.3364C38.5733 32.6395 38.6532 32.1587 37.8629 31.1986L36.9149 30.0563C36.2505 29.2696 36.4469 29.6404 36.138 28.6452L33.2109 20.5292C33.0979 20.2164 32.9578 19.8975 32.8735 19.5764L32.5931 20.2526C32.399 20.6523 32.5187 21.8181 32.5182 22.2986L32.5119 26.9216C32.4891 28.653 31.1633 30.0393 29.4329 30.2231C29.1151 30.2569 28.77 30.2322 28.4493 30.2317ZM26.6324 2.74619C24.2349 3.63068 21.9479 3.60223 19.5333 2.81758C19.9883 3.91807 20.5511 4.85079 21.4362 5.66899C22.0404 6.29791 22.5417 6.9949 22.9193 7.78291L23.0941 8.06749C23.6676 6.7893 23.9938 6.27579 24.9545 5.30866C25.5003 4.75905 26.4927 3.54499 26.6662 2.74962L26.6324 2.74619ZM18.0858 3.13751C17.8003 3.68009 17.6616 4.47124 17.8923 5.05479L18.0644 5.46701C18.6397 6.6694 19.7991 7.63338 21.045 8.08183L21.3766 8.19119C21.4262 8.21112 21.4747 8.23179 21.5268 8.24426C21.3234 7.89982 21.1124 7.55032 20.861 7.23776C19.7763 5.88916 18.5631 4.95973 18.0858 3.13751ZM28.0993 3.2479C27.7571 4.00619 27.3858 4.7599 26.8629 5.41113C26.7457 5.5571 24.0191 8.36308 24.8105 8.1393C26.0989 7.73937 27.3155 6.75284 27.9394 5.55429C28.3543 4.75746 28.3259 4.07004 28.0993 3.2479ZM16.3102 4.83213C15.6374 4.90155 14.9632 5.06299 14.295 5.17423C12.3524 5.49762 10.5077 5.6689 9.46856 7.69319C9.28476 8.05123 9.17559 8.45332 9.03824 8.83109L7.15767 13.8179C6.96979 14.3045 6.8189 14.8153 6.61138 15.2926L6.39853 15.8754L12.1347 18.0937C12.3033 17.6035 12.5299 17.1138 13.1329 17.2142L13.1641 17.2189C13.3537 17.2489 13.5156 17.3644 13.6266 17.5193L14.0931 18.2642C14.3871 18.7543 14.5848 19.2289 14.7848 19.7577C14.8743 19.9944 14.8684 20.2717 14.9163 20.5164L22.2562 20.8536L22.2637 9.94169C22.0957 9.86632 21.866 9.85591 21.6812 9.81612C19.226 9.28774 16.8258 7.41213 16.3543 4.84474L16.3102 4.83213ZM29.7248 4.81605C29.0316 7.67693 26.5994 9.53482 23.7277 9.92646L23.7034 20.8344C24.0303 20.8675 24.3677 20.8511 24.6962 20.8508L28.5882 20.7932C28.7932 20.7867 28.9859 20.7368 29.1888 20.7241L30.3255 20.6464C30.5587 20.6347 30.7945 20.6432 31.0267 20.6219C31.0535 19.7431 31.4797 19.0394 31.8758 18.283C32.0901 17.9222 32.3088 17.3593 32.7454 17.2349C33.2209 17.0994 33.6843 17.3875 33.7843 17.8684L33.8348 18.0925L39.6079 15.8543L36.8332 8.39177C36.3871 7.21408 35.6401 6.29848 34.4587 5.77104C33.7688 5.46307 33.0094 5.39032 32.2734 5.25377L29.7248 4.81605ZM40.0397 17.254L34.3728 19.4567C34.4026 19.5591 34.4333 19.6545 34.4727 19.7537L36.1383 24.4198C36.1839 24.5551 36.2407 24.8473 36.3477 24.9321L36.4721 24.8958L42.1772 22.7399L40.1194 17.254C40.0644 17.2437 40.091 17.243 40.0397 17.254ZM5.86846 17.2533L3.84918 22.7581C4.25648 22.9687 4.72209 23.1015 5.14935 23.2703L9.62235 24.9651L11.6371 19.4387L5.86846 17.2533ZM14.9588 22.0118L14.9402 24.6029C15.0931 24.6369 15.2483 24.6379 15.4035 24.655L18.4873 24.9955C18.9696 25.0252 19.4632 25.0063 19.9471 25.0064L22.1446 24.9978L22.2561 22.3319L17.6782 22.2586C17.5031 22.2485 17.3339 22.2133 17.1599 22.2016L15.315 22.0628C15.2073 22.0476 15.0644 21.9954 14.9588 22.0118ZM31.0553 22.0587L23.7286 22.3304L23.7591 24.7639L31.0675 24.3466L31.0805 22.8557C31.0802 22.6009 31.1012 22.3229 31.0701 22.0714L31.0553 22.0587ZM42.6185 24.1212L36.8517 26.3056L37.5899 28.3613C37.6597 28.5714 37.837 28.7259 37.9771 28.8907L38.8938 29.9584L39.3141 30.4879C39.381 30.5752 39.4518 30.6994 39.5382 30.7661L43.1797 29.9664C43.3766 29.927 43.5745 29.8753 43.7752 29.862C43.8352 29.2245 43.805 28.5807 43.826 27.9415C43.8462 27.3226 43.9611 27.2993 43.7028 26.7061L42.6824 24.1136L42.6185 24.1212ZM3.34035 24.1292L2.39889 26.4884C2.18002 27.004 2.17169 27.0186 2.18575 27.5628L2.23667 28.9376C2.24793 29.1984 2.21941 29.5049 2.27099 29.7596L6.40509 30.7431L7.1466 29.8897L8.04285 28.8954C8.14743 28.7705 8.2686 28.6589 8.32565 28.504L9.14568 26.3276L3.34035 24.1292ZM30.6134 25.8087L23.7115 26.2197L23.7059 28.7636L24.1837 28.7662L28.7503 28.7656C29.4701 28.7647 30.0497 28.6224 30.5835 28.0841C31.1506 27.5125 31.0843 26.8316 31.0767 26.0899L31.0717 25.8004L30.6134 25.8087ZM14.9469 26.1044C14.8886 27.1863 15.0156 28.1059 16.1352 28.5837L16.5845 28.7311C16.7712 28.7971 17.0299 28.7667 17.2289 28.7668L22.2404 28.7662L22.2562 26.4906C20.9035 26.4431 19.5362 26.5573 18.1854 26.4774C17.1103 26.4138 15.9865 26.1491 14.9469 26.1044Z" fill="black"/>
</svg>
