<svg width="42" height="32" viewBox="0 0 42 32" fill="none" xmlns="http://www.w3.org/2000/svg">
<path d="M28.2479 31.6241L26.1031 31.6639C25.7609 31.6544 25.4177 31.6148 25.0779 31.5755C24.0505 31.4565 23.7272 31.3622 23.4998 30.368L22.1277 24.7478L21.4245 22.5624C21.3329 22.2934 21.0333 22.1627 20.7656 22.2845C20.5424 22.386 20.4284 22.9717 20.3413 23.1953L19.4441 25.6253L18.0804 30.0878C17.8123 31.0658 17.9387 31.3797 16.7341 31.5685C15.9685 31.6885 15.2678 31.6283 14.4955 31.5747L11.9294 31.3437C10.0596 31.102 8.21997 30.6771 6.37928 30.2797C4.16064 29.8008 1.33731 29.345 0.201839 27.0527C-0.0292177 26.5862 0.10011 26.1595 0.21059 25.6796L2.60814 12.5546L3.6879 6.00225C3.76647 5.57832 3.76872 5.21185 3.76858 4.77783L3.76975 1.99003C3.77158 1.11764 4.23123 0.347956 5.17679 0.258612L12.9144 0.993237C13.0997 1.02572 13.3003 1.01119 13.489 1.01194L28.125 1.0096L30.8455 0.906565C30.9886 0.897893 31.1212 0.862315 31.2638 0.85055L35.0039 0.53119L36.2465 0.360846C36.4007 0.334596 36.5519 0.268971 36.7061 0.25383C37.5713 0.168799 38.2213 1.03632 38.2223 1.87303L38.2275 5.75569C38.2344 5.91136 38.2759 6.03755 38.3 6.18708L38.4492 7.18327C38.5292 7.65516 38.6137 8.12977 38.6847 8.60269L39.2344 11.8984L40.1199 17.109L41.6771 25.308C41.6952 25.4149 41.6978 25.5275 41.7203 25.6328L41.9522 26.8858C41.9988 27.2065 42.0369 27.4488 41.8262 27.7211C41.1134 28.6417 39.0203 29.4382 37.9662 29.7346L34.8049 30.4927C33.667 30.7624 32.5345 31.066 31.3786 31.2539L28.2479 31.6241ZM5.23895 1.74291L5.22629 4.46817C5.22639 4.56118 5.21364 4.67696 5.23553 4.76653L16.7119 4.7551L16.6128 4.5105L16.6034 4.48608C16.4222 4.00303 16.5101 3.28041 16.7203 2.82783L16.9098 2.49741C16.4574 2.46661 15.9985 2.48128 15.5449 2.48119L12.8066 2.47758L7.23151 2.03138L5.87111 1.85142C5.66106 1.81964 5.4444 1.7986 5.23895 1.74291ZM36.7288 1.76166C35.6972 1.95221 34.6742 2.03344 33.655 2.13146L29.2387 2.40769C29.0164 2.41735 28.8032 2.46769 28.579 2.47425L20.8157 2.48166C20.3074 2.48175 19.7786 2.44932 19.2742 2.49502L19.271 2.52089C19.2021 3.03685 19.008 2.79239 18.5742 2.9371L18.5368 2.94924C18.229 3.05344 17.8377 3.56827 17.9325 3.90661L17.9694 4.04382C17.9826 4.10189 18.0014 4.14586 18.0264 4.19916L18.0417 4.23347C18.1009 4.36069 18.1893 4.4416 18.2905 4.53567C18.6307 4.84411 18.9005 4.76653 19.335 4.76658L36.7682 4.76527L36.7288 1.76166ZM5.09031 6.23128L4.26423 11.2848C4.98273 11.0313 5.70128 10.5339 6.2703 10.0351C7.37453 9.02939 8.09195 7.71263 8.30223 6.23353L5.09031 6.23128ZM9.80336 6.23119C9.70478 6.70969 9.62865 7.1791 9.47739 7.64719C8.725 9.97514 6.94033 11.8463 4.65264 12.6876C4.43626 12.7671 4.22884 12.8504 3.99765 12.876L2.04625 23.7646C2.35154 23.9273 2.71075 24.0245 3.03643 24.144L4.87501 24.8158C6.75475 25.4896 8.63523 26.135 10.5938 26.5406L11.7649 26.7811L14.2555 27.0642L15.3439 27.0796C16.1042 27.0814 16.7934 27.0302 17.5436 26.9048C17.8645 25.6532 18.3384 24.4217 18.7792 23.2079L19.1012 22.3317C19.3112 21.7633 19.5263 21.3659 20.0742 21.0439L20.2383 20.9687C21.3546 20.5202 22.4382 21.1472 22.8078 22.2226L23.4775 24.2562L24.1086 26.9341C24.9996 27.1289 25.9126 27.0909 26.8178 27.0807C30.1143 27.0432 32.888 26.2237 36 25.184L37.3242 24.7207C38.176 24.4372 39.0822 24.2 39.9676 24.0565L38.4107 15.5822L37.8906 12.8844C37.6835 12.8575 37.4671 12.7543 37.2723 12.6807C34.8105 11.7499 32.9931 9.62911 32.3559 7.08947C32.3239 6.96178 32.2331 6.27774 32.1922 6.23185L22.6958 6.23475C22.6839 6.34064 22.7245 6.41803 22.7429 6.51858L23.11 8.55853L23.4998 12.5774L23.5086 14.1296C23.5075 15.8843 23.3432 17.6609 21.7617 18.7804C21.266 19.1313 19.8032 19.9733 19.5892 18.8593L19.5832 18.8314C19.3576 17.7256 21.7299 18.0675 22.0373 15.5312C22.0658 15.2956 22.0531 15.0475 22.0536 14.8103L22.039 12.1257C22.0182 11.7253 21.9753 11.3277 21.9444 10.9277L21.3399 6.92091C21.295 6.7148 21.278 6.41677 21.1868 6.23189L19.3232 6.234L19.0455 7.93889L18.658 11.6144C18.6162 12.3897 18.643 13.1955 18.6546 13.9723C18.6663 14.7577 19.0405 15.7579 17.9926 16.0048C17.3024 15.8247 17.2715 15.3449 17.2698 14.7234L17.2752 11.1153L17.5664 8.09705L17.8686 6.23541L9.80336 6.23119ZM33.727 6.23232L33.6445 6.25341C33.6678 6.46172 33.7345 6.68311 33.7984 6.88275L33.8499 7.07381C34.2168 8.75813 35.8984 10.4629 37.4076 11.1588L37.5352 11.212L37.6092 11.2338C37.6237 11.0746 37.5718 10.8814 37.5459 10.7236L36.9462 6.87361C36.9091 6.66825 36.8626 6.46908 36.8493 6.26011L33.727 6.23232ZM1.76833 25.2136L1.63438 25.9401C1.52882 26.4311 1.48177 26.3873 1.78539 26.8122C2.58794 27.9355 4.13223 28.3258 5.41408 28.6017L8.92042 29.3476C9.16694 29.3986 9.41397 29.4653 9.66264 29.5046L11.836 29.8669L14.2813 30.1002C14.4665 30.1138 14.6421 30.1548 14.8288 30.1644L16.5782 30.1747L16.6549 29.8566C16.6942 29.7522 17.08 28.4901 17.0616 28.4441L16.2789 28.5261C15.4652 28.5751 14.6762 28.5258 13.8678 28.47L12.2548 28.3254C9.43173 27.9399 6.73365 27.022 4.06848 26.0493L1.76833 25.2136ZM40.1999 25.4804L38.6133 25.8452L34.7762 27.1005C32.4754 27.8352 29.9871 28.4555 27.5574 28.5371L24.4917 28.4828L24.7884 29.6499C24.8301 29.7945 24.85 29.9348 24.91 30.0742C25.2788 30.3482 28.3449 30.1529 28.8499 30.1007L29.4744 30.0467C30.6083 29.8922 31.7456 29.723 32.8623 29.468L35.5547 28.8024C37.2361 28.4026 39.1906 28.1208 40.5325 26.927L40.2704 25.4921C40.2215 25.4724 40.2452 25.4746 40.1999 25.4804Z" fill="black"/>
</svg>
