<svg width="30" height="48" viewBox="0 0 30 48" fill="none" xmlns="http://www.w3.org/2000/svg">
<path d="M16.069 47.2484L12.7581 47.238C12.4582 47.2244 12.1621 47.1677 11.8602 47.1485L5.91016 46.5893C4.63999 46.4964 3.95627 46.4465 3.95472 45.0076C3.95425 44.5878 3.98744 44.198 4.01786 43.7833L4.36666 40.0268L2.40119 40.0188C1.7957 40.0196 1.0533 40.0707 0.822016 39.2951C0.743735 39.0326 0.773219 38.7058 0.755641 38.4323L0.57311 35.9703L0.572266 29.6074L0.961703 24.1634L1.4568 20.466L2.8233 14.2372C3.66541 11.2373 5.00748 10.4846 8.00233 9.57163C7.64505 9.32892 7.37284 8.76763 7.18066 8.39981C6.66944 7.42152 6.33545 6.26198 6.4817 5.14842L6.48719 5.10866C6.79872 2.50846 10.342 0.973943 12.5821 0.596946C13.1504 0.501307 13.7266 0.452896 14.3007 0.407638C14.7886 0.3762 15.3125 0.370034 15.7997 0.402132L17.5074 0.592118C19.4541 0.885781 22.4748 2.09803 23.2896 4.03319C23.9881 5.69193 23.0874 7.71412 21.6108 8.58834L21.5881 8.60085C21.8471 9.10227 22.5627 9.76696 23.0706 9.95915L23.8592 10.2388C25.1486 10.704 26.1176 11.6057 26.7183 12.8313C26.9011 13.2044 26.9756 13.6127 27.1089 14.0017L28.1133 18.2102L28.4894 20.3066C28.4996 20.4184 28.5336 20.5189 28.5511 20.6281L29.0999 24.7507C29.2053 25.5801 29.2675 26.5791 29.3099 27.4295L29.3544 28.8817C29.3667 29.1031 29.4164 29.3158 29.4233 29.5371L29.43 34.8917C29.428 35.1891 29.459 35.5241 29.407 35.8157C29.2806 36.5231 29.4027 37.26 29.2936 37.9691C29.2349 38.3505 29.2809 39.2029 29.104 39.5084L29.0859 39.5384C28.7507 40.112 28.1529 40.0161 27.5889 40.0174L25.7306 40.0222L25.9822 43.1119C25.9938 43.2908 26.0328 43.474 26.0379 43.6516L26.0382 44.5657C26.0427 44.8556 26.0919 45.1549 26.0473 45.4442L26.0413 45.4798C26.0279 45.5631 26.0117 45.6382 25.9821 45.7176L25.9701 45.7493C25.6216 46.7009 24.6325 46.5052 23.8305 46.6049L17.9295 47.1748C17.7216 47.1898 17.5172 47.2287 17.3079 47.2394L16.069 47.2484ZM14.4969 1.76318C13.3108 1.8004 11.8406 2.05886 10.7457 2.53149C9.02294 3.27514 7.10088 4.72804 7.99834 6.84609L8.31766 7.63527C8.48908 8.01037 8.80877 8.51817 9.18489 8.70834L9.20041 8.70388C9.27888 6.1941 10.6588 5.25327 12.9874 4.90279C13.419 4.83782 13.8547 4.79807 14.2906 4.79737C16.0886 4.7706 18.5427 4.76831 19.891 6.07377C20.3293 6.49823 20.5284 6.93909 20.7484 7.49596C21.7864 6.92938 22.6149 5.59049 21.9723 4.42851C20.9869 2.64689 17.6401 1.87147 15.6886 1.77089L14.4969 1.76318ZM14.4728 6.17713C13.4527 6.18257 11.5751 6.35202 10.9566 7.23581L10.9324 7.26984C10.5156 7.86342 10.5032 8.72723 10.5881 9.43392L12.1042 10.0213C12.0023 9.70087 11.5308 8.80204 11.6291 8.60137C11.7925 8.26799 12.2215 8.36971 12.407 8.62603C12.5606 8.83813 12.6702 9.09552 12.8014 9.32338L13.3845 10.3036C13.6611 10.803 13.5434 10.6934 14.0262 11.0247L14.7889 11.5779C15.6016 9.46134 17.4368 8.55684 19.4807 7.97723C18.8635 6.09834 16.1147 6.14868 14.4728 6.17713ZM19.7645 8.98757C18.2334 9.65517 16.6136 10.4343 15.97 12.0654L15.7511 12.8205C15.6763 13.0561 15.7083 13.3734 15.7081 13.6192L15.7042 44.2424C15.6927 45.2502 14.6983 45.3419 14.3797 44.6661L14.3499 44.5916C14.2103 44.2416 14.2799 43.758 14.2796 43.3894L14.2985 13.5913C14.2989 13.5328 14.3157 13.4169 14.2989 13.3664C14.2705 13.281 13.2719 12.4417 13.1631 12.3592C12.4687 11.8326 11.6053 11.4232 10.8126 11.0709L9.13234 10.4277C8.61325 10.6801 8.09706 10.9499 7.56269 11.1689C7.09361 11.3611 6.58638 11.4945 6.13342 11.7166C4.54975 12.4933 4.29709 13.9202 3.89617 15.4168L2.72584 20.9524L2.06406 26.4016C1.99253 27.1487 1.94702 27.9855 1.91533 28.743L1.91491 35.9968C1.921 36.1492 1.95855 36.2986 1.96427 36.4529L2.07381 38.6362L4.56405 38.6686L4.99844 35.6009C5.11103 34.9917 5.2682 34.3837 5.31555 33.7642C5.33772 33.4738 5.27238 33.1787 5.26727 32.8868L5.26427 30.5216C5.27495 27.7449 5.82972 24.959 6.87508 22.3874L7.26142 21.5224C7.37495 21.2688 7.47344 20.9095 7.6967 20.7351C8.11544 20.4081 8.5247 20.756 8.64944 21.1868L8.66134 21.2232C8.74783 21.5091 8.77319 21.8252 8.821 22.1192C9.13281 24.0359 9.13516 25.1253 8.89745 26.9827C8.66702 28.675 7.95325 29.8083 7.42028 31.3235L7.03202 32.5774C6.95266 32.8578 6.88178 33.1452 6.77458 33.4166L8.96331 33.4186C9.45503 33.4186 10.1561 33.2675 10.4059 33.8313L10.4221 33.8669C10.6738 34.4746 10.0932 34.8485 9.5268 34.8502L6.51756 34.8371C6.4607 34.9665 6.46591 35.0911 6.44453 35.2272L5.6732 40.3143C5.49531 41.7084 5.32178 43.111 5.3148 44.5177C5.31377 44.7226 5.27017 44.9991 5.31184 45.1956C5.71511 45.2612 6.12573 45.2775 6.53252 45.3108L12.9442 45.8684L16.2773 45.8795C16.9938 45.8767 17.5598 45.814 18.2445 45.7771L24.7261 45.2102C24.7289 44.8642 24.6827 44.5259 24.678 44.1823C24.6649 43.229 24.6603 42.4636 24.5607 41.5162L24.3765 39.84L23.5625 35.0344C23.5512 34.971 23.5519 34.8905 23.512 34.8397L20.5346 34.8503C19.9221 34.8487 19.3753 34.5659 19.6078 33.8586L19.6159 33.8324C19.7488 33.4371 20.206 33.4194 20.5436 33.4185L23.2194 33.4192C22.8625 31.2509 21.4127 29.3106 21.0354 26.9149C20.7925 25.3727 20.9166 23.8209 21.1556 22.2884L21.2866 21.483C21.3206 21.2975 21.3538 21.0952 21.4603 20.9349C21.7042 20.5676 22.2814 20.5124 22.5 20.9407L23.363 23.0004C23.5378 23.3954 23.6123 23.8282 23.7577 24.2308L24.0365 25.192C24.3553 26.196 24.5683 27.7905 24.6519 28.8431L24.7365 30.354L24.7137 33.0838C24.6918 33.3991 24.6201 33.7352 24.6886 34.0465L25.4437 38.23C25.4744 38.3676 25.4548 38.5098 25.5005 38.645L27.9085 38.6459C27.9676 38.2152 28.0154 37.5091 28.0345 37.062L28.0645 35.4895C28.072 35.3184 28.1065 35.1523 28.1121 34.9807L28.1149 30.1634L28.0296 27.9269L27.5654 22.9424L26.4681 16.8491L26.0928 15.3012C25.5967 13.3833 25.24 12.171 23.2103 11.4756C22.0633 11.0825 21.5823 10.8159 20.7832 9.82317C20.4696 9.43359 20.3245 9.10682 19.8172 8.9721L19.7645 8.98757ZM22.2963 24.0018C22.1508 25.2751 22.3053 26.6337 22.6013 27.87L23.0536 29.1613C23.1438 29.4144 23.2173 29.6584 23.3453 29.8957C23.2128 27.5894 23.0129 26.2884 22.2963 24.0018ZM7.68034 24.0364C7.10636 25.7921 6.59031 27.9532 6.60836 29.7956L6.64412 29.7983C6.90972 29.0266 7.24061 28.2815 7.44827 27.4894C7.60197 26.9031 7.8505 24.6636 7.68034 24.0364Z" fill="black"/>
</svg>
